<?xml version="1.0" standalone="no"?><!DOCTYPE svg PUBLIC "-//W3C//DTD SVG 1.1//EN" "http://www.w3.org/Graphics/SVG/1.1/DTD/svg11.dtd"><svg t="1660805741207" class="icon" viewBox="0 0 1294 1024" version="1.1" xmlns="http://www.w3.org/2000/svg" p-id="2885" xmlns:xlink="http://www.w3.org/1999/xlink" width="252.734375" height="200"><defs><style type="text/css">@font-face { font-family: feedback-iconfont; src: url("//at.alicdn.com/t/font_1031158_u69w8yhxdu.woff2?t=1630033759944") format("woff2"), url("//at.alicdn.com/t/font_1031158_u69w8yhxdu.woff?t=1630033759944") format("woff"), url("//at.alicdn.com/t/font_1031158_u69w8yhxdu.ttf?t=1630033759944") format("truetype"); }
</style></defs><path d="M584.695279 497.496996m-450.032618 0a450.032618 450.032618 0 1 0 900.065236 0 450.032618 450.032618 0 1 0-900.065236 0Z" fill="#FAEFC0" p-id="2886"></path><path d="M640.949356 891.275536c-248.572704 0-450.032618-201.459914-450.032618-450.032618 0-109.959142 39.465751-210.689099 104.949013-288.829527C197.333219 234.94867 134.662661 358.97133 134.662661 497.496996c0 248.572704 201.459914 450.032618 450.032618 450.032618 138.613562 0 262.548326-62.670558 345.083605-161.20309-78.140429 65.571159-178.870386 104.949013-288.829528 104.949012z" fill="#D4AA7D" p-id="2887"></path><path d="M88.956223 152.061803m-70.317596 0a70.317597 70.317597 0 1 0 140.635193 0 70.317597 70.317597 0 1 0-140.635193 0Z" fill="#FAEFC0" p-id="2888"></path><path d="M1120.866953 550.235193m-35.158798 0a35.158798 35.158798 0 1 0 70.317596 0 35.158798 35.158798 0 1 0-70.317596 0Z" fill="#FAEFC0" p-id="2889"></path><path d="M822.896137 997.630901m-26.369098 0a26.369099 26.369099 0 1 0 52.738197 0 26.369099 26.369099 0 1 0-52.738197 0Z" fill="#FAEFC0" p-id="2890"></path><path d="M293.756223 21.095279m-21.095279 0a21.095279 21.095279 0 1 0 42.190558 0 21.095279 21.095279 0 1 0-42.190558 0Z" fill="#FAEFC0" p-id="2891"></path><path d="M641.828326 271.601717c0 31.642918-25.75382 57.836223-57.396738 57.133047-30.500258-0.615279-55.111416-25.578026-55.111416-56.254077l-0.263691-4.131159c-0.351588-6.328584 4.746438-11.6903 11.075021-11.690301h90.533906c6.15279 0 11.075021 5.010129 11.075021 11.075022v3.867468z" fill="#D4AA7D" p-id="2892"></path><path d="M472.187124 216.226609m-26.369098 0a26.369099 26.369099 0 1 0 52.738197 0 26.369099 26.369099 0 1 0-52.738197 0Z" fill="#D4AA7D" p-id="2893"></path><path d="M697.203433 216.226609m-26.369098 0a26.369099 26.369099 0 1 0 52.738197 0 26.369099 26.369099 0 1 0-52.738197 0Z" fill="#D4AA7D" p-id="2894"></path></svg>